<?xml version="1.0" encoding="UTF-8"?><svg xmlns="http://www.w3.org/2000/svg" xmlns:xlink="http://www.w3.org/1999/xlink" viewBox="0 0 50 50" version="1.1"><path d="M9.434 8a2.05 2.05 0 0 0-1.332.555c-1.836 1.82-3.676 3.636-5.524 5.449-.32.312-.578.875-.578 1.36v.003c.008 8.395.008 25.442.008 25.63v1h1c.187 0 25.176-.005 37.543.003.5 0 1.066-.258 1.39-.578l.004-.004c1.817-1.809 3.64-3.61 5.473-5.402.344-.34.582-.922.582-1.399C47.992 26.247 48 9 48 9V8zm.046 2H46c0 1.254-.008 16.55 0 24.605A889.514 889.514 0 0 0 40.535 40c-12.043-.008-35.094-.008-36.527-.004 0-1.398 0-16.5-.008-24.586A1021.53 1021.53 0 0 0 9.48 10zm9.614 4c-.317 0-.63.008-.946.02-.765.03-1.52.16-2.257.375-1.672.496-2.926 1.488-3.657 3.07a12.64 12.64 0 0 0-.64 1.707c-.473 1.594-.57 3.234-.59 4.879-.012 1.11.055 2.215.215 3.312.156 1.028.398 2.032.808 2.996.743 1.735 2.047 2.825 3.883 3.301 1.598.418 3.211.473 4.875.242.836 1.348 1.68 2.715 2.535 4.098 1.012-.469 1.973-.91 2.961-1.367-.816-1.297-1.601-2.551-2.379-3.79.34-.304.676-.573.973-.878.77-.809 1.234-1.781 1.54-2.84.433-1.512.542-3.066.581-4.625.027-1.207-.05-2.41-.215-3.605-.156-1.114-.426-2.2-.886-3.235-.786-1.758-2.122-2.86-4-3.344-.926-.234-1.86-.312-2.801-.316zM31 16v4h-2v3h2v7c0 .77.16 1.613.469 2.332a2.378 2.378 0 0 0 1.297 1.293c.46.195.941.297 1.437.344.95.086 2.05-.067 2.984-.23.266-.048.528-.102.813-.157-.027-.816-.07-1.91-.137-2.695-.105-.008-.16-.024-.218-.02-.625.024-1.415.121-2.04.133a3.759 3.759 0 0 1-.808-.078c-.336-.07-.559-.293-.652-.629-.036-.14-.075-.277-.083-.418A29.957 29.957 0 0 1 34 28c-.012-1.89 0-5 0-5h4v-3h-4v-4zm-12.004 1.02c.594 0 1.184.07 1.774.214 1.02.25 1.78.797 2.25 1.653.41.734.636 1.52.742 2.328.125.976.183 1.96.238 2.57-.05 1.692-.09 3.004-.465 4.29a7.287 7.287 0 0 1-.285.804c-.422 1.031-1.254 1.66-2.434 1.933a8.048 8.048 0 0 1-3.597.008c-1.258-.28-2.106-.965-2.551-2.054a8.38 8.38 0 0 1-.602-2.723 36.445 36.445 0 0 1-.05-3.133c.027-1.129.195-2.246.605-3.32.086-.223.191-.442.3-.652.47-.887 1.25-1.442 2.298-1.704a7.448 7.448 0 0 1 1.777-.214z" id="surface1"/><metadata><rdf:RDF xmlns:rdf="http://www.w3.org/1999/02/22-rdf-syntax-ns#" xmlns:rdfs="http://www.w3.org/2000/01/rdf-schema#" xmlns:dc="http://purl.org/dc/elements/1.1/"><rdf:Description about="https://iconscout.com/legal#licenses" dc:title="qt" dc:description="qt" dc:publisher="Iconscout" dc:date="2017-12-09" dc:format="image/svg+xml" dc:language="en"><dc:creator><rdf:Bag><rdf:li>Icons8</rdf:li></rdf:Bag></dc:creator></rdf:Description></rdf:RDF></metadata></svg>